<?xml version="1.0" standalone="no"?>
<!DOCTYPE svg PUBLIC "-//W3C//DTD SVG 20010904//EN"
 "http://www.w3.org/TR/2001/REC-SVG-20010904/DTD/svg10.dtd">
<svg version="1.0" xmlns="http://www.w3.org/2000/svg"
 width="57.000000pt" height="72.000000pt" viewBox="0 0 57.000000 72.000000"
 preserveAspectRatio="xMidYMid meet">
<metadata>
Created by potrace 1.12, written by Peter Selinger 2001-2015
</metadata>
<g transform="translate(0.000000,72.000000) scale(0.100000,-0.100000)"
fill="#000000" stroke="none">
<path d="M224 546 c-24 -11 -32 -22 -41 -60 -11 -49 -2 -61 18 -23 7 12 17 25
23 29 19 13 64 9 80 -8 26 -25 19 -63 -24 -126 -41 -61 -45 -74 -34 -102 9
-24 24 -19 24 8 0 16 17 39 53 71 28 26 57 57 64 69 15 26 16 81 3 107 -24 44
-105 61 -166 35z"/>
<path d="M236 184 c-30 -30 -9 -84 33 -84 25 0 41 20 41 50 0 47 -42 66 -74
34z"/>
</g>
</svg>
